<svg height="12" viewBox="0 0 12 12" width="12" xmlns="http://www.w3.org/2000/svg"><path d="m8 6.85333332c1.31249997-.61333332 2.21875-1.81333332 2.21875-3.19999999 0-2-1.90625004-3.65333333-4.25000002-3.65333333-2.34375002 0-4.24999999 1.62666666-4.24999999 3.62666666 0 1.38666668.90625002 2.58666668 2.21875 3.2-2.3125.72-3.93749999 2.61333333-3.93749999 4.80000004 0 .2133333.1875.3733333.43750001.3733333.25 0 .4375-.16.4375-.3733333 0-2.40000004 2.28125-4.37333337 5.12499999-4.37333337s5.125 1.94666666 5.125 4.37333337c0 .2133333.1875.3733333.4375.3733333s.4375-.16.4375-.3733333c-.0625-2.18666671-1.71875-4.08000004-4-4.77333338zm-5.43750001-3.22666666c0-1.59999999 1.53125001-2.90666666 3.40624999-2.90666666 1.875 0 3.40625001 1.30666667 3.40625001 2.90666666 0 1.60000001-1.53125001 2.90666667-3.40625001 2.90666667-1.87499998 0-3.40624999-1.27999999-3.40624999-2.90666667z" fill="#797979"/></svg>