<svg height="50" viewBox="0 0 50 50" width="50" xmlns="http://www.w3.org/2000/svg"><path d="m31.1688888 28.2711111c4.2933334-2.3511111 7.2577778-6.9511111 7.2577778-12.2666667 0-7.66666664-6.2355555-14.0044444-13.9022222-14.0044444s-13.9022222 6.23555555-13.9022222 13.9022222c0 5.3155556 2.9644445 9.9155556 7.2577778 12.2666666-7.5644445 2.76-12.88 10.0177778-12.88 18.4 0 .8177778.61333334 1.4311112 1.43111113 1.4311112s1.43111113-.6133334 1.43111113-1.4311112c0-9.2 7.46222224-16.7644444 16.76444444-16.7644444s16.7644445 7.4622222 16.7644445 16.7644444c0 .8177778.6133333 1.4311112 1.4311111 1.4311112.8177777 0 1.4311112-.6133334 1.4311112-1.4311112-.2044446-8.3822222-5.6222224-15.64-13.0844447-18.2977777zm-17.7866666-12.3688889c0-6.13333332 5.008889-11.14222219 11.1422222-11.14222219 6.1333334 0 11.1422223 5.00888887 11.1422223 11.14222219 0 6.1333334-5.0088889 11.1422222-11.1422223 11.1422222-6.1333332 0-11.1422222-4.9066666-11.1422222-11.1422222z" fill="#797979"/></svg>