<svg height="50" viewBox="0 0 50 50" width="50" xmlns="http://www.w3.org/2000/svg"><g fill="#20b0e3" transform="translate(0 2)"><path d="m10.4033989.42763461-.0000003.00000012c.9594675-.45048224 2.0696701-.45048224 3.0291376-.00000024l.0000004.00000024c.6842641.35245267 1.3094539.80933039 1.8530981 1.3542058l7.127406 6.23648574h5.0960972l7.1273617-6.23648574.0000006-.00000063c.5443927-.54400295 1.1694407-1.00077394 1.8530981-1.3542058l.0000001-.00000005c1.853541-.66185934 3.8926796.30418701 4.5545567 2.15773018.0923719.25868705.154525.52718721.1852221.80014971l.0000001.00000304c.0372766.86469348-.2414027 1.71339939-.7840115 2.38768564l.0000002-.00000028c-.4970145.50263896-1.0204284.97846661-1.5680231 1.42546347l.0000002-.00000018c-.3151369.2938243-.6484005.56758132-.9978288.81966253h4.454601c1.987726.06395299 3.8700711.90908228 5.2386569 2.35203464l-.0000001-.0000001c1.4529081 1.3649277 2.31056 3.2466219 2.3876857 5.2386126v20.4912534l.0000003.000007c.0522767 1.0368677-.0074731 2.0763485-.1782119 3.1003952l.0000003-.0000016c-.4689853 2.0744663-1.7534569 3.8727416-3.5636808 4.9891886l.0000001-.0000001c-1.2310615.7593437-2.6519236 1.1547109-4.0982684 1.1403885h-32.71475649-.00000016c-1.07239477.054728-2.14756633-.0050126-3.20729503-.1782093l-.00000068-.0000001c-2.04981178-.482639-3.82096133-1.7660787-4.91788663-3.5636897l-.00000042-.0000007c-.78623033-1.2226913-1.20663731-2.6446162-1.21169045-4.0982683v-20.2773918l-.00000066-.000007c-.09153001-.9838342-.09152957-1.9740369.00000037-2.957871l-.00000018.0000009c.66760335-3.4831406 3.5903327-6.08436012 7.12740594-6.3433501h4.66846259c-.7484048-.53454326-1.3898567-1.17603947-2.06695964-1.74623372l.00000013.00000012c-.81144731-.74539778-1.23246103-1.8242363-1.1403885-2.92222891l-.00000004.00000059c.08398662-1.16840441.7368194-2.22091877 1.74623375-2.81532025m-.81970685 13.82713297h-.00000016c-1.35515797.2399201-2.45105138 1.2387011-2.81532026 2.565852l-.00000003.0000003c-.06384847.4491447-.06384847.905061.00000007 1.3542058v16.8562705l.00000004-.0000008c-.07864252 1.6067432.92890068 3.066963 2.45894332 3.5637251h-.00000001c.49344942.1674405 1.01129208.2519581 1.53237208.249424h28.9728651.0000002c1.4515352.0546023 2.7909447-.7772489 3.3854702-2.1025663l.0000002-.0000006c.3066999-.7438079.4289673-1.5507557.3563765-2.3520347v-15.6802311.0000004c.0818763-.5672536.0818768-1.1433291.0000001-1.7105827l-.0000001-.0000002c-.3202698-1.1431919-1.1888029-2.0518269-2.3163836-2.4233367h-.0000002c-.7083872-.2505538-1.4590861-.3595253-2.209475-.320726h-27.689917l.0000007.0000001c-.5576168-.0393308-1.1173062-.0393311-1.67492293-.0000008z"/><path d="m15.4281942 19.8141504c.8934711-.0451186 1.7712248.2474568 2.4589433.8196183.7730019.6608142 1.2268543 1.6204013 1.2472972 2.6371539v3.5636809l.0000001.0000022c.0319787.8196315-.2197668 1.6252019-.7127539 2.280777l.0000001-.0000002c-1.2353928 1.5321507-3.4789289 1.7727173-5.0110663.5373245-.3335426-.2689399-.6158541-.5958231-.8333782-.9649591h-.0000001c-.3706214-.7510577-.5307124-1.5885368-.4632413-2.4233366v-3.5636809.0000002c.2446747-1.5804855 1.5123013-2.8043991 3.1003952-2.9934866zm18.4242493 0h.0000001c1.9631069-.1410499 3.6688623 1.3360172 3.8099118 3.299124.0012146.0169053.0023087.033819.003282.05074v3.5636808l.0000001.0000021c.0574411.8195695-.1285233 1.6378414-.5345432 2.3520789l.0000001-.0000001c-1.1122619 1.6237493-3.3302356 2.0383901-4.9539805.9261283-.3632746-.2488417-.6772845-.5628515-.9261283-.9261283l-.0000001-.0000002c-.4496497-.7631701-.6490427-1.6479787-.5701943-2.5302453v-3.5637251.0000006c.184932-1.6360434 1.4665706-2.9324238 3.1003952-3.1360462z"/></g></svg>