<?xml version="1.0" standalone="no"?><!DOCTYPE svg PUBLIC "-//W3C//DTD SVG 1.1//EN" "http://www.w3.org/Graphics/SVG/1.1/DTD/svg11.dtd"><svg class="icon" width="64px" height="64.00px" viewBox="0 0 1024 1024" version="1.1" xmlns="http://www.w3.org/2000/svg"><path fill="#797979" d="M512 967.111111a455.111111 455.111111 0 1 1 455.111111-455.111111 455.111111 455.111111 0 0 1-455.111111 455.111111z m0-853.333333a398.222222 398.222222 0 1 0 398.222222 398.222222A398.222222 398.222222 0 0 0 512 113.777778z m170.666667 426.666666h-170.666667a28.444444 28.444444 0 0 1-28.444444-28.444444v-227.555556a28.444444 28.444444 0 0 1 56.888888 0v199.111112h142.222223a28.444444 28.444444 0 0 1 0 56.888888z"  /></svg>