<svg height="50" viewBox="0 0 50 50" width="50" xmlns="http://www.w3.org/2000/svg"><path d="m25 48c-12.7025492 0-23-10.2974508-23-23s10.2974508-23 23-23 23 10.2974508 23 23-10.2974508 23-23 23zm0-43.12499999c-11.1147306 0-20.12499999 9.01026939-20.12499999 20.12499999s9.01026939 20.125 20.12499999 20.125 20.125-9.0102694 20.125-20.125c0-5.3374818-2.1203064-10.4563544-5.8944761-14.230524-3.7741695-3.77416958-8.8930421-5.89447599-14.2305239-5.89447599zm8.625 21.56249999h-8.625c-.7939093 0-1.4375-.6435907-1.4375-1.4375v-11.5c0-.7939093.6435907-1.4375 1.4375-1.4375s1.4375.6435907 1.4375 1.4375v10.0625h7.1875c.7939093 0 1.4375.6435907 1.4375 1.4375s-.6435907 1.4375-1.4375 1.4375z" fill="#797979"/></svg>