<svg height="12" viewBox="0 0 12 12" width="12" xmlns="http://www.w3.org/2000/svg"><path d="m6 12c-3.31370849 0-6-2.68629151-6-6s2.68629151-6 6-6 6 2.68629151 6 6-2.68629151 6-6 6zm0-11.25c-2.89949494 0-5.25 2.35050506-5.25 5.25s2.35050506 5.25 5.25 5.25 5.25-2.35050506 5.25-5.25c0-1.39238657-.5531234-2.72774462-1.53768941-3.7123106-.98456597-.98456599-2.31992402-1.5376894-3.71231059-1.5376894zm2.25 5.625h-2.25c-.20710678 0-.375-.16789322-.375-.375v-3c0-.20710678.16789322-.375.375-.375s.375.16789322.375.375v2.625h1.875c.20710678 0 .375.16789322.375.375s-.16789322.375-.375.375z" fill="#797979"/></svg>