<svg height="50" viewBox="0 0 50 50" width="50" xmlns="http://www.w3.org/2000/svg"><g fill="none"><path d="m5.74230614.07003281h38.51546306c3.5947761 0 5.392161 1.79738491 5.392161 5.39216103v38.51546306c0 3.5947761-1.7973849 5.392161-5.392161 5.392161h-38.51546306c-3.59477613 0-5.39216103-1.7973849-5.39216103-5.392161v-38.51546306c0-3.59477612 1.7973849-5.39216103 5.39216103-5.39216103z" fill="#242424"/><path d="m24.8921733 43.4607485c-2.6321486-2.0960117-5.2920247-4.2189801-7.8979814-6.3696823l-.0000002-.0000002c-.401261-.3622061-.6848532-.8362866-.8142146-1.3611378-.9228308-4.4639402-1.7909711-8.9548243-2.686839-13.4465173-.1355742-.6254911 0-.9251435.6509141-1.1431407 3.6373974-1.3064411 7.2200854-2.6945418 10.8567624-4.0009829h.0000001c.5029043-.1634388 1.0446473-.1634388 1.5475529 0 3.6366265 1.3064411 7.246309 2.6675789 10.8567624 4.0009829.5700285.2179978.786487.462956.6509141 1.0614874-.8958679 4.5463644-1.7909712 9.0919453-2.7137956 13.6375388-.1086138.4621857-.4344544.9521002-.8142146 1.2517507-2.6059566 2.1507021-5.2380989 4.245943-7.8987396 6.3696822-.1894962.2172269-.5161071.3266109-.8411775.5168774-.3258406-.1902665-.6516787-.2996499-.8958679-.5168774z" fill="#d09d32"/><path d="m36.5754532 11.3442877c-.0816527.5284322-.0816527.7934189-.1633054 1.0568618-.5153368 1.9565843-1.0037133 3.9131686-1.5190482 5.8420254-.2711489 1.0044842-.4067231 1.0838248-1.3834753.7394994-2.3871886-.8712177-4.7743771-1.7701692-7.1885539-2.5635881-.5700285-.1848739-1.3295557-.1848739-1.9257731 0-2.3879595.7934189-4.7474142 1.6923704-7.1076714 2.538167-1.0576328.3697484-1.1662491.3165973-1.4373949-.7140783l-.0000166-.0000624c-.5098924-1.9166738-1.0071002-3.8366968-1.4915923-5.7599486-.0816528-.2911769-.1086138-.6085444-.1902665-1.1631655 1.0037132.3697485 1.8179278.6601525 2.5774519.9782922.1625351.0785716.2711489.3959392.2711489.6070038.0816527 1.295661.5969895 1.9296214 1.8179278 2.1414576 1.3557414.2380256 2.5497243-.1055327 3.4987408-1.0838248.8142145-.8196109.8142145-1.5860669.1902665-2.564359-.1902665-.2904066-.2172269-.81884-.0816527-1.0830539.7317966-1.26946899 1.5737386-2.45882642 2.3879594-3.67437585.3520314-.55462232.6501433-.52920248 1.0029424 0 .786487 1.21554943 1.6276644 2.43186346 2.3879594 3.67437585.1617649.2642158.1078435.792648-.082423 1.0830539-.6239505.9521001-.6239505 1.771711.1902665 2.564359 1.0306762 1.0306762 2.3055352 1.4011936 3.7706639 1.0044841 1.0853666-.2904065 1.4920916-.8719886 1.572974-1.9827763.0277311-.2642158.2172269-.6609233.4344544-.7664559.7317966-.2904066 1.4920916-.5022415 2.4688419-.8719886zm1.5999307 14.5118307c-.3797627-1.876476.5430681-3.7799117 2.0890798-4.4939836 1.4651287-.6871153 2.956443-1.3480387 4.4485346-2.035154.2719192-.1324931.5430681-.2110647 1.0853666-.4490903-.1902665.6871153-.3797626 1.1362088-.4614154 1.5860668-.2981093 1.9296214-1.4373948 3.0396382-3.3092484 3.6474129-1.301822.4490904-2.4957985 1.1369734-3.8515463 1.7447482zm-32.95921808-6.8726732 1.30182194.5546223c1.54678202.6878863 3.0658302 1.4281502 4.61184134 2.1152656.6778707.2904065 1.0576327.7133073 1.166249 1.4535713.0816528.6609233.2441879 1.3480387.4074934 2.0089683.1355741.6085444-.0277311.8196109-.6516787.5284322-1.7355036-.7934189-3.44482138-1.5860668-5.1810958-2.3787148-.2441879-.1055327-.51533683-.2904066-.59698955-.5022415-.46064513-1.1631654-.86814037-2.3525228-1.30182195-3.5418802l.2441879-.238796zm38.81896178 5.3659754c-.4067231 1.1631654-.8142145 2.3263308-1.2479024 3.4625396-.0816528.2118349-.2981094.3967094-.5161071.5022415-1.6538565.7934188-3.3354405 1.5329119-5.2619782 2.4318634.1078434-.7133073.2172268-1.2155494.2441879-1.6915995.0539216-1.6122589.8411774-2.590551 2.4418789-3.0927931 1.1385153-.3697484 2.196919-.9782922 3.3092485-1.4797633.2711489-.1324931.5422972-.211835.8134436-.3173676.0816527.052381.1355742.1317228.2172288.1848739zm-37.109625-.1848739c.24341762.0793419.48760552.1317227.73179658.2380256 1.51904818.6871154 3.01191062 1.4004227 4.53018792 2.0613461.6239506.2642157.9497938.6609233 1.0584037 1.3218529.1355742.8989516.3250704 1.7717111.5422972 2.828573-.406723-.106303-.6509141-.1586838-.8411774-.238796-1.3834753-.6339667-2.7669506-1.2417351-4.12269209-1.9026648-.32584062-.1586837-.75952409-.3967094-.86814037-.7133073-.4614154-1.1107877-.81421452-2.2739532-1.22093949-3.4101556.05392161-.0531514.13557414-.1055327.19026648-.1848739zm29.0799569 11.1279081c.1078434-.5546223.2981093-1.0830538.3258406-1.6384445.0539216-1.5067263.8404065-2.3263309 2.2516157-2.828573 1.1939765-.4228995 2.3055352-1.0044841 3.6890105-1.6384445-.1355742.5815833-.1625352.9243726-.2981094 1.268698-1.2756299 3.5156883-.2988802 2.5112104-3.7437009 4.123463l-1.9535007.8719886h-.0000004c-.0937528-.0469126-.1843298-.0999204-.2711554-.1586833zm-21.4577341.211835c-1.5460111-.7140783-3.0380964-1.4011937-4.503225-2.1414576-.21645663-.105532-.37976271-.3959386-.46064452-.6339667-.37976268-1.0838248-.73256117-2.1676496-1.16701997-3.4895026.57002852.2118349.89586788.3173675 1.22093949.4498606 1.2209395.5546223 2.441879 1.0568618 3.6081281 1.6646366.3797626.1848739.759524.5553926.8950969.9259144.271149.8719886.4067231 1.7709401.5700285 2.6691208.0269609.132493-.0816527.264986-.1633054.5553945z" fill="#d09d32"/><path d="m30.836654 32.6818355c.0808825-.0277311.1355742-.0816528.2172269-.1093841 0-.4082636.0808825-.8434901-.0277311-1.224794-.5700285-2.0682779-1.2209395-4.1095992-1.6284354-6.2333385-.3250703-1.7963612-1.7909712-2.7761952-3.4740906-2.8039227-2.0898508-.0539216-3.6366265 1.1708682-3.962469 3.3754962-.2441879 1.6060916-.6516788 3.1305362-1.1939766 4.6549744-.1902665.5446087-.2441879 1.1161778-.3258406 1.6869741-.0269609.1910367.0816527.4082636.1625351.8165272.4344544-.4621857.7333321-.7887934.9497938-1.0607164.3805323.7071464.733332 1.3880944 1.0861375 2.0135875-.2988796.2449581-.5969896.5176476-.9228308.7626077l.0816527.3266109c2.6321486.1363444 5.2650619.1902665 7.8709995-.0269608l.0808825-.3266109c-.3250704-.2457284-.6239506-.4906866-.895097-.7086819.3528016-.6801834.7056046-1.3603669 1.0853666-2.0413213.2988802.2726895.5969896.5993004.8958679.8989516z" fill="#242424"/></g></svg>