<svg height="12" viewBox="0 0 12 12" width="12" xmlns="http://www.w3.org/2000/svg"><path d="m12 9.48944186c-.0000824-1.68784468-1.0480907-3.13065441-2.53002366-3.71912267.71775336-.47842903 1.19081496-1.29327663 1.19081496-2.21891847 0-1.26366653-.88135709-2.32125661-2.06427877-2.59628604-.01094077-.00258076-.02130499-.00129038-.03124367.00253958-.01348036-.00111192-.02649398-.00402214-.04019398-.00402214-.2527635 0-.45759076.20441544-.45759076.45643765 0 .22772465.16755723.41485723.38613939.44925821.03888986.01573165.08988733.02788045.09193273.02859427.68504085.23178797 1.17803471.87796642 1.17803471 1.6396888 0 .84945451-.61328749 1.55530617-1.42220483 1.70282132-.00115311.00023336-.00214148.00230621-.00329458.00284158-.26909916.01698085-.4827669.23782804-.4827669.51051007 0 .27678654.21996864.50088714.49479215.51184164.00193557.00083738.00359659.00378878.00558708.00400841 1.62679873.16537457 2.78002793 1.54763253 2.78002793 3.22991759 0 .24907083.2024936.45091922.4521272.45091922.2436622 0 .4408845-.19262356.4503702-.43336181.0002471-.0023062.0017708-.00409077.0017708-.00643818 0-.000906-.0002334-.00177083-.0002334-.00271804.0000412-.00284157.0002334-.00555961.0002334-.00836001v-.00004118zm-5.41810034-3.64428062c.85707323-.57265423 1.4217381-1.54679515 1.4217381-2.65300785 0-1.76296129-1.43287106-3.19215339-3.20045849-3.19215339-1.76754625 0-3.2004173 1.4291921-3.2004173 3.19215339 0 1.10625388.56469231 2.0803536 1.42169691 2.65300785-1.77184294.70537121-3.02445888 2.43124091-3.02445888 4.45001316 0 .1137045.006397.2255969.01514138.3369677h.00083738c0 .2456252.19966574.4447831.44603225.4447831.24632533 0 .44596361-.1991579.44596361-.4447831 0-.0139608-.00278667-.0269744-.00409078-.0405646-.00857965-.0978904-.01599248-.1960829-.01599248-.2964031 0-2.15669191 1.75289906-3.90511583 3.91524673-3.90511583 2.1624163 0 3.91531535 1.74842392 3.91531535 3.90511583 0 .1041639-.00741281.2063785-.01654157.3078655-.00013728.0053263-.00152375.0101721-.00152375.0154434 0 .0015512.00048047.0031436.00048047.0048046-.0003432.0028828-.00024711.0059028-.00048047.0088679h.00138647c.00741282.2391185.20302897.4311655.44461832.4311655.24164428 0 .43726041-.1919372.44467324-.4311655h.00087856c.00837375-.1113708.01437265-.2233318.01437265-.3368304 0-2.01892325-1.25260221-3.74479295-3.0244177-4.45016416zm-1.77872039-.3600847c-1.26962425 0-2.29889459-1.0265935-2.29889459-2.29292315 0-1.26637084 1.02927034-2.29292316 2.29889459-2.29292316 1.26966543 0 2.2989495 1.02655232 2.2989495 2.29292316 0 1.26631592-1.02928407 2.29292315-2.2989495 2.29292315z" fill="#797979"/></svg>