<svg height="50" viewBox="0 0 50 50" width="50" xmlns="http://www.w3.org/2000/svg"><path d="m49.833324 41.4075359c-.0003422-7.0092426-4.352487-13.0009097-10.5066241-15.4446871 2.9806697-1.9868091 4.945189-5.3706894 4.945189-9.2146736 0-5.2477253-3.6600795-9.63966102-8.5724894-10.78179692-.0454346-.01071735-.0884749-.00535867-.129748.01054632-.0559809-.00461758-.1100236-.01670308-.1669166-.01670308-1.0496705 0-1.9002724.84889174-1.9002724 1.8954838 0 .94568968.6958278 1.72280953 1.6035508 1.86566913.1615009.06533006.373282.11578129.3817761.11874566 2.8448219.96256369 4.8921154 3.64599879 4.8921154 6.80926189 0 3.5275952-2.5468461 6.4588397-5.9060995 7.0714372-.0047886.0009691-.0088931.0095772-.0136816.0118005-1.1175089.0705177-2.0048233.9876468-2.0048233 2.1200345 0 1.1494327.9134807 2.0800726 2.0547615 2.1255641.0080379.0034775.0149358.015734.0232018.0166461 6.7557324.6867637 11.5448361 6.4269727 11.5448361 13.4131274 0 1.0343357.8409107 1.872567 1.8775836 1.872567 1.0118748 0 1.8308948-.7999227 1.8702867-1.7996549.0010261-.0095772.0073539-.0169881.0073539-.0267364 0-.0037624-.0009691-.0073538-.0009691-.0112874.000171-.0118004.0009691-.0230878.0009691-.0347172v-.0001711zm-22.5001625-15.1338848c3.559234-2.3781053 5.9041613-6.4234953 5.9041613-11.01735 0-7.32118501-5.950394-13.2563011-13.2907904-13.2563011-7.3402254 0-13.29061938 5.93511609-13.29061938 13.2563011 0 4.5940257 2.34504127 8.6392447 5.90399028 11.01735-7.35806863 2.9292494-12.5599033 10.0964014-12.5599033 18.4799125 0 .4721892.02656529.9368535.06287877 1.3993516h.00347745c0 1.0200268.82916729 1.8470848 1.85227247 1.8470848 1.02293415 0 1.85198741-.827058 1.85198741-1.8470848 0-.0579762-.01157241-.1120189-.01698808-.1684558-.03562937-.4065172-.06641321-.8142885-.06641321-1.2308958 0-8.9562607 7.27939889-16.2170754 16.25914659-16.2170754 8.9800326 0 16.2594315 7.2608147 16.2594315 16.2170754 0 .4325693-.0307838.8570437-.0686935 1.2784967-.00057.0221187-.0063277.0422422-.0063277.0641329 0 .0064418.0019952.0130546.0019952.0199524-.0014252.0119715-.0010261.0245131-.0019952.0368266h.0057577c.0307837.9930055.843134 1.7905338 1.8464007 1.7905338 1.0034948 0 1.815845-.7970723 1.8466288-1.7905338h.0036485c.0347743-.4624981.0596863-.9274475.0596863-1.3987816 0-8.3841381-5.2017776-15.5512901-12.5597322-18.4805395zm-7.3866291-1.4953514c-5.2724664 0-9.5467966-4.2632139-9.5467966-9.5219986 0-5.25895563 4.2743302-9.52199847 9.5467966-9.52199847 5.2726374 0 9.5470246 4.26304284 9.5470246 9.52199847 0 5.2587277-4.2743872 9.5219986-9.5470246 9.5219986z" fill="#797979"/></svg>